<?xml version="1.0" standalone="no"?><!DOCTYPE svg PUBLIC "-//W3C//DTD SVG 1.1//EN" "http://www.w3.org/Graphics/SVG/1.1/DTD/svg11.dtd"><svg t="1639722928584" class="icon" viewBox="0 0 4935 1024" version="1.1" xmlns="http://www.w3.org/2000/svg" p-id="12688" xmlns:xlink="http://www.w3.org/1999/xlink" width="963.8671875" height="200"><defs><style type="text/css"></style></defs><path d="M3284.5824 652.41088c4.8128 0 9.728-0.1024 14.7456-0.32768 5.0176-0.2048 9.728-0.65536 14.09024-1.31072a65.9456 65.9456 0 0 0 15.23712-3.76832c4.03456-1.6384 7.20896-3.93216 9.50272-6.88128 2.29376-2.94912 3.93216-6.5536 4.9152-10.81344 0.98304-4.25984 1.47456-9.33888 1.47456-15.23712V521.0112l22.1184-8.35584c6.656-2.51904 12.61568-4.97664 17.85856-7.3728l-7.20896-26.2144c-5.67296 2.39616-11.264 4.64896-16.71168 6.71744-5.46816 2.06848-10.81344 3.9936-16.05632 5.7344v-56.03328h38.01088v-26.2144h-38.01088V352.256h-28.18048v57.01632h-39.97696v26.2144h39.97696v65.86368c-14.848 5.0176-30.57664 9.8304-47.18592 14.41792l7.53664 27.52512a387.56352 387.56352 0 0 0 39.64928-12.12416v75.3664c0 3.70688-0.16384 6.656-0.49152 8.84736a9.46176 9.46176 0 0 1-2.12992 5.07904 7.82336 7.82336 0 0 1-4.75136 2.29376 56.07424 56.07424 0 0 1-8.35584 0.49152c-3.70688 0-7.53664-0.06144-11.4688-0.16384a93.14304 93.14304 0 0 1-10.48576-0.8192l5.89824 30.14656z m189.39904-177.27488c8.94976 0 17.75616-0.06144 26.37824-0.16384a919.1424 919.1424 0 0 0 21.79072-0.49152c6.98368-0.2048 12.84096-0.88064 17.53088-1.96608 4.7104-1.08544 8.58112-2.78528 11.63264-5.07904 3.072-2.29376 5.40672-5.24288 7.04512-8.84736 1.6384-3.60448 2.88768-8.25344 3.76832-13.9264 0.2048-1.31072 0.43008-3.072 0.65536-5.24288 0.2048-2.19136 0.49152-4.48512 0.8192-6.88128a174.8992 174.8992 0 0 0 0.8192-7.04512c0.2048-2.29376 0.32768-4.1984 0.32768-5.7344l-26.2144-5.89824c-0.2048 2.39616-0.49152 5.79584-0.8192 10.15808a103.75168 103.75168 0 0 1-1.14688 10.15808 28.672 28.672 0 0 1-1.80224 7.20896 10.11712 10.11712 0 0 1-3.44064 4.25984 16.46592 16.46592 0 0 1-6.22592 2.4576c-2.62144 0.55296-6.22592 1.024-10.81344 1.47456-4.15744 0.43008-9.6256 0.75776-16.384 0.98304a661.6064 661.6064 0 0 1-42.92608 0c-6.98368-0.2048-12.9024-0.55296-17.69472-0.98304-7.63904-0.43008-12.4928-1.90464-14.58176-4.42368-2.06848-2.51904-3.11296-7.2704-3.11296-14.25408v-7.20896c9.17504-1.96608 18.944-4.15744 29.32736-6.5536 10.38336-2.39616 21.36064-5.12 32.93184-8.192 13.76256-3.4816 26.48064-6.7584 38.17472-9.8304 11.6736-3.072 22.44608-6.12352 32.27648-9.17504l-7.53664-25.55904c-9.17504 3.072-19.5584 6.28736-31.1296 9.66656-11.5712 3.3792-24.4736 6.94272-38.66624 10.6496-10.91584 2.84672-20.97152 5.30432-30.14656 7.3728l-25.23136 5.7344v-45.21984h-27.19744v83.5584c0 6.7584 0.55296 12.4928 1.6384 17.2032 1.08544 4.7104 3.072 8.51968 5.89824 11.4688 2.84672 2.94912 6.61504 5.18144 11.30496 6.71744 4.7104 1.536 10.5472 2.51904 17.53088 2.94912 4.8128 0.2048 11.30496 0.38912 19.49696 0.49152 8.192 0.1024 16.77312 0.16384 25.72288 0.16384z m74.38336 173.34272V499.712h-156.30336v148.76672h156.30336z m-27.52512-86.8352h-102.23616V524.288h102.23616v37.35552z m0 61.93152h-102.23616v-36.70016h102.23616v36.70016z m341.77024-67.1744v-111.4112h-107.15136v-34.73408h130.41664v-27.52512h-130.41664v-32.44032h-29.4912v94.69952h-88.80128v111.4112h225.44384z m-28.50816-28.18048h-168.42752v-55.37792h168.42752v55.37792zM3870.80192 655.36l24.576-14.41792a209.1008 209.1008 0 0 0-7.70048-17.03936 560.9472 560.9472 0 0 0-11.30496-21.2992 1148.43648 1148.43648 0 0 0-11.96032-21.62688c-3.60448-6.3488-6.94272-11.6736-9.99424-16.05632l-23.92064 12.12416c3.072 4.58752 6.3488 10.0352 9.8304 16.384 3.4816 6.3488 7.43424 13.53728 11.79648 21.62688 8.51968 16.1792 14.7456 29.5936 18.67776 40.30464z m-244.1216 3.93216c3.072-5.0176 6.4512-10.97728 10.15808-17.85856a657.01888 657.01888 0 0 0 23.10144-47.67744c2.94912-6.7584 5.40672-13.1072 7.3728-19.00544l-26.86976-9.17504c-1.96608 5.24288-4.42368 11.264-7.3728 18.0224-2.94912 6.7584-6.49216 14.31552-10.6496 22.60992-4.15744 8.0896-7.92576 15.29856-11.30496 21.62688-3.3792 6.3488-6.61504 11.89888-9.66656 16.71168l25.23136 14.7456z m158.26944-9.50272l26.2144-7.53664a222.78144 222.78144 0 0 0-4.42368-16.22016c-1.8432-6.00064-4.096-12.61568-6.71744-19.82464a347.648 347.648 0 0 0-14.09024-35.06176l-24.90368 7.86432c1.96608 4.36224 4.03456 9.44128 6.22592 15.23712 2.19136 5.79584 4.48512 12.3904 6.88128 19.82464 2.39616 7.20896 4.52608 13.824 6.38976 19.82464 1.8432 6.00064 3.33824 11.30496 4.42368 15.89248z m-81.59232 3.2768l27.8528-5.89824a243.32288 243.32288 0 0 0-2.12992-16.384 291.2256 291.2256 0 0 0-4.096-20.31616 867.08224 867.08224 0 0 0-4.9152-20.48 188.57984 188.57984 0 0 0-4.58752-15.5648l-25.88672 5.24288c1.31072 4.58752 2.62144 9.89184 3.93216 15.89248 1.31072 6.00064 2.72384 12.84096 4.25984 20.48 1.536 7.63904 2.72384 14.5408 3.60448 20.64384 0.88064 6.12352 1.536 11.5712 1.96608 16.384z m330.9568-224.4608v-25.88672h85.85216v25.88672h28.83584v-25.88672h75.69408v-24.576h-75.69408v-29.4912h-28.83584v29.4912h-85.85216v-29.4912h-28.83584v29.4912h-75.69408v24.576h75.69408v25.88672h28.83584z m-94.69952 90.76736c10.0352-3.70688 19.72224-7.70048 28.99968-11.96032 9.27744-4.25984 18.28864-8.58112 27.0336-12.94336v18.0224h163.18464v-19.6608c9.6256 4.8128 19.33312 9.33888 29.16352 13.59872 9.8304 4.25984 19.98848 8.35584 30.47424 12.288l10.48576-26.2144c-31.0272-10.48576-57.67168-21.9136-79.95392-34.24256-22.28224-12.34944-40.63232-25.3952-55.05024-39.15776h-33.09568c-15.72864 14.41792-35.0208 27.9552-57.83552 40.63232a485.376 485.376 0 0 1-76.84096 33.75104l13.43488 25.88672z m212.66432-29.81888h-147.12832a440.5248 440.5248 0 0 0 39.3216-23.7568c12.02176-8.192 23.04-16.54784 33.09568-25.06752 14.6432 13.1072 34.73408 26.76736 60.29312 40.96l14.41792 7.86432z m30.47424 168.7552l19.00544-20.31616a215.40864 215.40864 0 0 0-14.41792-16.384 1503.4368 1503.4368 0 0 0-19.6608-19.98848c-14.41792-14.41792-26.76736-25.55904-37.02784-33.42336l-17.69472 18.35008c3.93216 3.2768 8.13056 6.98368 12.61568 11.14112l15.23712 14.09024a1212.37504 1212.37504 0 0 1-50.46272 3.2768c-14.41792 0.88064-28.50816 1.536-42.27072 1.96608-13.76256 0.43008-27.42272 0.65536-40.96 0.65536 9.6256-8.0896 18.51392-15.99488 26.70592-23.7568 8.192-7.76192 16.32256-16.65024 24.41216-26.70592h159.25248v-25.23136h-279.83872v25.23136h84.86912a290.32448 290.32448 0 0 1-44.89216 42.92608c-4.8128 3.93216-12.55424 7.10656-23.26528 9.50272l4.25984 23.59296c34.07872-0.88064 68.096-2.02752 102.07232-3.44064 33.97632-1.4336 67.9936-3.21536 102.07232-5.40672 8.0896 8.94976 14.7456 16.93696 19.98848 23.92064z" fill="#FFFFFF" p-id="12689"></path><path d="M1019.86304 204.94336s-166.64576 0-166.64576 144.7936c0 147.98848 166.64576 144.7936 166.64576 144.7936h94.55616v-92.40576a187.904 187.904 0 0 1-12.6976 28.3648 86.17984 86.17984 0 0 1-76.98432 44.91264h-1.26976a85.79072 85.79072 0 0 1-68.11648-37.5808c-15.2576-22.1184-23.9616-55.13216-23.9616-88.12544 0-32.99328 8.92928-65.9456 23.9616-88.064a85.66784 85.66784 0 0 1 68.11648-37.41696h1.26976a86.17984 86.17984 0 0 1 76.98432 44.81024c4.99712 9.1136 9.25696 18.6368 12.6976 28.4672v-92.54912h-94.55616z m371.99872 0v178.9952a106.00448 106.00448 0 0 1-30.208 75.1616c-47.88224 47.84128-115.9168 24.61696-115.9168 24.61696V204.94336h-83.78368v204.1856c2.2528 39.0144 34.26304 65.1264 59.96544 79.9744 13.312 7.70048 28.42624 11.73504 43.80672 11.71456l145.7152-0.24576V204.94336h-19.57888z m996.63872 139.71456c-9.17504-118.784-117.30944-135.94624-148.35712-138.4448-18.2272-1.67936-61.09184-3.54304-96.99328 6.67648l-1.6384 0.45056c-43.6224 12.3904-102.52288 45.09696-109.19936 131.2768 0 0-0.53248 5.55008-0.43008 8.27392 0.1024 2.74432 0.4096 8.27392 0.4096 8.27392 7.7824 100.22912 85.95456 128.08192 128.88064 135.8848l3.01056 0.49152 2.29376 0.36864 4.25984 0.63488h0.53248c21.23776 2.39616 42.65984 2.82624 63.97952 1.3312 22.1184-1.08544 143.50336-12.53376 153.2928-138.77248a80.44544 80.44544 0 0 0 0-16.54784l-0.04096 0.1024z m-96.60416 8.27392c0 2.72384 0 5.44768-0.24576 8.25344h0.28672a214.30272 214.30272 0 0 1-13.0048 74.24 73.23648 73.23648 0 0 1-68.52608 47.18592 73.23648 73.23648 0 0 1-68.52608-47.18592 214.3232 214.3232 0 0 1-13.0048-74.24v-16.52736a214.016 214.016 0 0 1 13.04576-74.3424 73.216 73.216 0 0 1 68.5056-47.14496 73.19552 73.19552 0 0 1 68.5056 47.14496 214.016 214.016 0 0 1 13.04576 74.3424h-0.26624c0.14336 2.94912 0.2048 5.46816 0.24576 8.27392h-0.06144zM2639.0528 204.8v11.01824l-55.86944 169.53344L2507.30496 204.8h-85.93408v295.64928h92.40576l-2.08896-0.7168a104.71424 104.71424 0 0 1-47.47264-34.85696 111.77984 111.77984 0 0 1-22.77376-65.9456V248.2176l108.25728 238.87872 6.10304 13.45536h10.58816l72.64256-220.73344v220.63104h85.56544V204.8h-85.56544z m-934.0928 203.71456c0-49.95072-50.81088-73.8304-50.81088-73.8304l-87.4496-37.1712-35.06176-15.03232c-18.10432-9.728-23.87968-20.84864-24.1664-30.80192-0.47104-15.70816 12.94336-28.38528 28.65152-28.38528h46.87872a109.6704 109.6704 0 0 1 103.23968 71.94624c0.512 1.39264 0.75776-90.19392 0.75776-90.19392h-157.65504c-33.34144 0-64.65536 18.432-78.88896 48.61952a83.59936 83.59936 0 0 0-8.17152 35.84v7.9872c2.8672 48.49664 50.83136 66.31424 50.83136 66.31424l104.87808 44.70784s40.09984 15.4624 41.1648 41.08288a28.672 28.672 0 0 1 0.53248 4.54656 28.30336 28.30336 0 0 1-28.672 28.42624H1559.9616a109.6704 109.6704 0 0 1-103.89504-73.99424v92.40576h161.792c33.3824 0 64.67584-18.432 78.90944-48.61952 5.0176-10.5472 8.17152-22.05696 8.17152-43.8272z m12.77952-203.5712v90.35776a110.24384 110.24384 0 0 1 103.64928-71.92576h2.94912v277.44256h83.78368V223.37536h2.9696a110.24384 110.24384 0 0 1 103.64928 71.92576v-90.35776H1717.71904z m-911.7696 51.712v-51.712h-83.7632v52.08064l83.7632-0.7168v0.34816z m-14.56128 16.91648c-16.6912 1.29024-43.52 3.2768-69.2224 7.51616v219.68896h83.80416V272.44544a1275.6992 1275.6992 0 0 1-14.58176 1.1264z m-342.15936-16.91648l-3.72736-22.91712 17.08032 15.7696a178.7904 178.7904 0 0 0 32.768 24.14592v-68.7104H411.648v295.87456h83.80416V334.4384a148.6848 148.6848 0 0 1-46.22336-77.78304z m182.45632-12.1856h0.88064a60.8256 60.8256 0 0 1 34.01728 10.91584V204.8h-83.80416v77.16864c8.3968-15.50336 24.064-35.96288 48.90624-37.49888z m-46.61248 182.8864a143.38048 143.38048 0 0 1-2.29376-7.53664v80.95744h59.71968c-26.4192-13.5168-46.03904-38.46144-57.42592-73.44128z m72.33536-95.4368c0.69632 4.7104 1.1264 9.46176 1.24928 14.21312-0.36864 28.01664-10.58816 40.09984-19.57888 50.76992-6.00064 7.08608-11.1616 13.18912-13.7216 24.12544-4.23936 18.5344-2.49856 31.232 6.69696 44.19584 17.34656 2.8672 28.672 15.33952 34.52928 23.7568v-190.70976c-12.0832 10.4448-10.8544 20.3776-9.17504 33.64864z" fill="#FFFFFF" p-id="12690"></path><path d="M632.6272 252.39552a53.37088 53.37088 0 0 1 34.4064 13.04576l139.42784-1.16736c-20.56192 2.2528-102.21568 5.0176-140.4928 24.576-25.4976 18.39104-15.19616 37.08928-14.86848 57.11872-0.6144 43.29472-25.94816 42.5984-33.0752 73.19552-5.0176 21.31968-2.49856 37.1712 10.0352 53.51424 24.41216 1.98656 36.41344 27.56608 36.41344 27.56608-82.08384-22.016-81.22368-134.49216-81.22368-134.49216-110.592-18.14528-125.5424-110.36672-125.5424-110.36672 61.1328 56.44288 125.52192 46.3872 125.52192 46.3872s14.92992-47.14496 49.37728-49.3568z" fill="#FFFFFF" p-id="12691"></path><path d="M621.69088 475.136l1.72032 1.72032-2.1504-2.3552zM632.832 394.36288l-1.47456 1.29024-1.10592 1.26976 0.90112-0.8192c0.75776-0.45056 1.16736-1.10592 1.65888-1.7408zM633.0368 393.23648l-1.536 1.39264c-0.28672 0.4096-0.53248 0.8192-0.8192 1.16736l2.56-2.56h-0.2048zM634.6752 392.02816l-2.53952 2.56 2.56-2.56zM583.14752 301.8752c-64.3072 55.296-105.5744-3.64544-125.07136-45.83424l-0.36864-0.6144v0.22528c17.6128 46.6944 56.9344 113.19296 125.44 46.20288zM668.7744 266.56768l-1.47456-0.73728h-1.08544zM583.2704 301.60896v0.2048s36.864-32.95232 83.68128-36.53632a94.1056 94.1056 0 0 0-83.68128 36.33152z" fill="#FFFFFF" p-id="12692"></path><path d="M583.2704 301.60896v0.16384c-62.19776 34.34496-104.73472-13.2096-125.00992-45.75232 19.47648 42.1888 60.74368 101.10976 125.07136 45.81376l-0.06144-0.2048zM663.7568 264.27392l3.09248 2.56-0.63488-0.9216z" fill="#FFFFFF" p-id="12693"></path><path d="M583.45472 301.11744a3.46112 3.46112 0 0 1-0.18432 0.49152 94.1056 94.1056 0 0 1 83.57888-36.31104c-62.81216-14.06976-81.24416 29.94176-83.39456 35.81952z m-0.34816 0.67584c-68.25984 25.78432-121.344-41.24672-125.17376-46.10048l0.14336 0.34816c20.2752 32.54272 62.81216 80.09728 125.0304 45.75232zM584.00768 303.32928a14.7456 14.7456 0 0 0 0.75776-2.12992c0 1.16736-0.75776 1.92512-0.86016 2.33472l0.1024-0.2048z" fill="#FFFFFF" p-id="12694"></path><path d="M608.0512 262.92224c-14.88896 12.53376-22.528 32.5632-24.43264 37.5808l-0.16384 0.55296c2.1504-5.85728 20.5824-49.88928 83.39456-35.79904l-3.09248-1.024c-8.9088-2.56-36.0448-9.3184-55.7056-1.31072z m-150.17984-7.33184c3.8912 4.95616 56.97536 71.9872 125.2352 46.20288-67.60448 15.17568-121.7536-42.3936-125.2352-46.20288zM583.61856 303.104s0-0.6144 0.86016-1.26976l0.73728-1.26976c-0.86016 1.3312-1.39264 2.1504-1.59744 2.56z" fill="#FFFFFF" p-id="12695"></path><path d="M583.14752 301.7728c-1.16736 0.16384-64.79872 9.50272-125.27616-46.24384 3.4816 3.87072 57.63072 61.44 125.27616 46.24384zM626.4832 476.24192c0.73728 1.1264 24.14592 19.39456 36.37248 21.0944a61.5424 61.5424 0 0 0-9.29792-12.04224c0.57344 3.1744 0.65536 6.30784-3.80928 4.25984-6.2464-3.82976-14.35648-7.51616-21.2992-14.00832-5.85728-5.16096-13.35296-17.2032-16.36352-21.85216-6.144-11.91936-8.31488-12.53376-12.22656-37.33504-3.01056-22.7328-16.52736-50.4832-16.52736-50.4832s15.83104 49.00864 19.53792 72.66304c0.8192 3.66592 6.47168 18.71872 23.63392 37.70368z" fill="#FFFFFF" p-id="12696"></path><path d="M608.74752 453.46816c4.32128 7.63904 9.25696 14.88896 14.76608 21.7088 6.38976 8.47872 22.54848 16.05632 24.00256 16.95744 5.03808 2.82624 10.4448 4.97664 16.03584 6.41024a23.7568 23.7568 0 0 0-0.69632-1.2288c-12.22656-1.67936-35.6352-20.04992-36.352-21.07392-17.16224-18.98496-22.81472-34.03776-23.6544-37.80608-3.70688-23.552-19.5584-72.66304-19.5584-72.66304s11.264 44.48256 14.2336 62.01344c0 0 4.66944 16.42496 11.22304 25.68192z" fill="#FFFFFF" p-id="12697"></path><path d="M609.5872 457.97376c3.52256 5.67296 7.33184 11.1616 11.42784 16.44544l0.49152 0.55296 0.14336 0.14336a90.9312 90.9312 0 0 0 42.88512 25.33376s-0.34816-0.69632-0.98304-1.8432a66.56 66.56 0 0 1-16.03584-6.38976c-1.57696-0.9216-17.53088-8.47872-24.00256-16.93696a161.5872 161.5872 0 0 1-14.7456-21.72928c-6.57408-9.33888-11.24352-25.76384-11.24352-25.76384-2.9696-17.53088-14.2336-61.91104-14.2336-61.91104 2.4576 19.5584 6.10304 38.95296 10.97728 58.0608 1.80224 8.13056 13.29152 30.88384 15.31904 34.03776z" fill="#FFFFFF" p-id="12698"></path><path d="M609.5872 457.97376c-2.12992-3.15392-13.6192-25.9072-15.42144-34.03776a467.18976 467.18976 0 0 1-10.9568-58.0608s-0.512 67.93216 37.80608 108.544a200.00768 200.00768 0 0 1-11.42784-16.44544z m13.39392 18.37056l-0.63488-0.63488 0.63488 0.63488zM648.92928 302.1824c13.7216-21.504 50.85184-24.71936 50.85184-24.71936s-72.92928-4.77184-61.1328 77.37344a68.73088 68.73088 0 0 1-6.656 37.888c3.11296-5.57056 9.46176-18.18624 9.8304-29.96224 0.32768-15.64672-2.70336-43.23328 7.10656-60.57984zM633.22112 392.704l-2.56 2.56 1.024-0.73728c0.512-0.512 1.00352-1.1264 1.536-1.82272z" fill="#FFFFFF" p-id="12699"></path><path d="M632.13568 393.23648c5.69344-7.8848 9.8304-16.7936 12.20608-26.2144 3.97312-19.8656 2.00704-37.08928 2.6624-46.63296 0.7168-15.23712 7.65952-20.93056 8.62208-21.66784 1.76128-2.2528 3.74784-4.34176 5.89824-6.22592 2.8672-2.4576 6.08256-4.42368 9.54368-5.91872 9.27744-3.8912 18.88256-6.92224 28.71296-9.1136 0 0-37.21216 3.23584-50.93376 24.76032-9.728 17.3056-6.69696 44.89216-7.04512 60.60032-0.34816 11.776-6.69696 24.3712-9.8304 29.94176-0.26624 0.55296-0.512 1.10592-0.79872 1.59744l0.96256-1.1264z" fill="#FFFFFF" p-id="12700"></path><path d="M647.168 364.9536c1.76128-10.0352 1.92512-28.672 1.88416-38.83008-0.88064-9.3184-0.49152-18.432 6.41024-27.40224-0.98304 0.73728-7.92576 6.43072-8.64256 21.66784-0.65536 9.54368 1.3312 26.76736-2.6624 46.63296-2.31424 9.4208-6.38976 18.30912-12.02176 26.2144l1.00352-1.20832c5.40672-7.41376 12.5952-18.51392 14.0288-27.07456z" fill="#FFFFFF" p-id="12701"></path><path d="M647.168 364.9536c-1.51552 8.56064-8.704 19.6608-14.11072 27.07456 8.72448-10.32192 17.53088-20.5824 17.96096-46.01856 0-6.7584-1.35168-13.37344-1.96608-19.88608 0.12288 10.15808-0.06144 28.85632-1.88416 38.83008zM666.70592 265.216a54.1696 54.1696 0 0 0-28.59008-12.43136c-1.8432-0.2048-3.66592-0.32768-5.50912-0.32768-1.1264 0-2.23232 0.2048-3.33824 0.36864a42.5984 42.5984 0 0 0-21.21728 10.0352c19.6608-7.94624 46.7968-1.26976 55.7056 1.35168l2.49856 0.73728h0.53248l-0.08192 0.26624zM2053.30432 634.6752V611.1232h-54.1696v-28.3648H1966.8992v28.3648h-54.59968v23.59296h54.59968v25.04704h-51.46624v22.54848a203.93984 203.93984 0 0 0 44.89216 87.90016l-50.60608 48.4352h46.32576l25.33376-26.25536 25.3952 26.25536h46.32576l-50.74944-48.45568a208.42496 208.42496 0 0 0 45.2608-87.8592v-22.56896h-48.47616v-25.04704h54.1696z m-40.448 47.47264a137.17504 137.17504 0 0 1-31.55968 66.92864 134.36928 134.36928 0 0 1-31.1296-66.92864h62.68928z m-129.67936-99.40992h-34.36544v38.6048h-23.1424v23.59296h23.1424v76.82048l-23.10144 6.18496v24.86272l23.10144-5.81632v51.2h-23.1424v20.48h57.50784v-80.32256l18.47296-4.64896-0.14336-26.07104-18.3296 4.9152v-67.584h18.47296v-23.61344h-18.47296v-38.6048z m-583.8848 40.1408h-24.9856v19.10784h-77.76256v-30.18752h102.74816v-24.3712h-102.74816V575.488H1165.312v90.70592h133.98016v-43.33568z m-134.59456 58.73664v129.8432h135.168v-129.8432h-135.168z m102.46144 109.09696h-69.71392v-33.83296h69.71392v33.83296z m0-55.64416h-69.71392V704.512h69.71392v30.5152z m-126.73024-159.5392h-34.38592v38.6048h-23.1424v23.59296h23.1424v76.8l-23.10144 6.20544v24.8832l23.10144-5.8368v51.2h-23.1424v20.48h57.52832V731.136l18.45248-4.66944-0.16384-26.05056-18.28864 4.9152v-67.60448h18.45248v-23.59296h-18.45248V575.488z m396.5952 71.80288l1.9456-19.0464h15.58528v-22.54848h-55.11168v-25.2928H1466.7776v25.23136h-60.45696v22.54848h15.60576l0.24576 5.7344a207.1552 207.1552 0 0 0 39.89504 113.33632L1413.12 816.128h37.56032l30.80192-43.95008 35.08224 43.95008h37.5808l-54.8864-67.91168-0.45056-0.55296 1.49504-2.08896c20.45952-29.0816 33.09568-62.91456 36.70016-98.26304z m-56.97536 72.4992a206.97088 206.97088 0 0 1-26.46016-91.60704h53.1456l-1.88416 15.5648a207.17568 207.17568 0 0 1-24.80128 76.04224z" fill="#FFFFFF" p-id="12702"></path><path d="M1347.03104 765.5424h72.37632v-24.3712H1369.2928l38.6048-79.7696H1371.7504l38.13376-78.7456h-37.888l-52.20352 103.15776h40.18176L1319.5264 765.5424h27.50464z m-27.89376 20.60288h90.07104v24.41216h-90.07104v-24.41216z m459.3664-50.7904V583.4752h-34.38592v151.92064H1679.36v23.59296h64.77824V819.2h34.38592v-60.23168h26.4192v-23.59296h-26.4192z m-135.9872-119.27552l24.30976-6.26688-0.14336-26.05056-88.4736 23.9616v24.63744l29.96224-7.65952v28.7744H1578.1888v23.59296h30.0032V819.2h34.36544v-142.1312h29.32736v-23.59296h-29.32736v-37.39648z" fill="#FFFFFF" p-id="12703"></path><path d="M1578.16832 688.06656h22.9376v116.9408h-22.9376v-116.9408z m70.77888 0h22.9376v116.9408h-22.9376v-116.9408z m78.97088-39.46496l-6.2464-60.19072h-30.67904l6.20544 60.19072h30.72z m0 73.1136l-6.2464-60.2112h-30.67904l6.20544 60.2112h30.72z" fill="#FFFFFF" p-id="12704"></path><path d="M3012.608 204.8h20.48v614.4h-20.48z" fill="#FFFFFF" p-id="12705"></path></svg>